<svg version="1.2" xmlns="http://www.w3.org/2000/svg" viewBox="0 0 546 392" width="546" height="392"><style>.a{opacity:.3;fill:#ffce71}.b{fill:#f2d053}.c{fill:none;stroke:#281e62;stroke-linejoin:round;stroke-width:2}.d{fill:#ff787f}.e{fill:#5a3cff}.f{fill:#cba8e5}.g{fill:none;stroke:#cba8e5;stroke-miterlimit:10;stroke-width:2}.h{fill:#6e66ed}.i{fill:none;stroke:#5a3cff;stroke-miterlimit:10;stroke-width:2}.j{fill:#281e62}.k{fill:none;stroke:#505eca;stroke-miterlimit:10;stroke-width:2}.l{fill:none;stroke:#281e62;stroke-miterlimit:1.5;stroke-width:2}.m{fill:none;stroke:#fdf3ea;stroke-miterlimit:10;stroke-width:2}.n{fill:none;stroke:#281e62;stroke-miterlimit:10;stroke-width:2}.o{fill:#fff}</style><path class="a" d="m486.5 113.9c-19.4-34.4-51.6-49.3-82.5-52.3-31-3-62 3.8-93 4.3-33.5 0.6-64.8 1.4-98.4 1.3-56.4-0.1-112.3 3.3-168.8 3.5-16 0-31.7 13.8-38.8 34.3-7.2 20.4-5.6 46.5 4.1 64.8 9.6 18.3 26.7 27.9 42.5 23.9 4.2-1.1 8.4-3.1 12.6-2.5 4.3 0.5 8.8 4.7 9.1 10.7 0.3 6.2-3.7 11.2-7.8 12.9-4.2 1.7-8.7 1.2-12.9 2.1-14.6 3.2-25.2 26.4-21.4 46.6 3.8 20.2 21.1 32.8 34.8 25.2l136 3.6q31.4 15.2 62.8 30.3c16.4 8 32.8 13.3 49.8 18.2 33.3 9.5 68.4 11.3 101.1-2.4 32.6-13.7 62.7-44.1 78.1-87.3 15.4-43.2 14.1-99.4-7.3-137.2z"/><path class="a" d="m177.5 57.9c-4.9-0.2-9.6-2.2-12.7-5.9-0.9-1.1-1.7-2.3-2.1-3.5-1.7-4.8-0.7-11.4 2.7-14 2.3-1.8 5-1.5 7.6-1 2.6 0.4 5.3 1 7.7-0.3 2.5-1.3 4.3-5.3 3.2-8.6-0.9-2.7-3.4-3.6-5.6-3.8-2.2-0.3-4.6-0.3-6.2-2.3-2.5-3-1.8-8.9 0.6-12.1 2.4-3.1 5.8-4 9-4.7 8.6-1.7 50.9-2.1 59.5-1.1 9.2 1 18.9 3.4 24.2 13.7 5.4 10.3 5.4 29-6.8 39.4-6.5 5.6-62.7 4.6-81.1 4.2z"/><path class="b" d="m169.8 233.5h153.2c1 0 1.9 0.7 1.9 1.6v7.5c0 0.8-0.9 1.5-1.9 1.5h-153.2c-1 0-1.8-0.7-1.8-1.5v-7.5c0-0.9 0.8-1.6 1.8-1.6z"/><path class="c" d="m175.6 244.1c0 0 11 105.8 14.8 142.5 0.1 0.7 0.7 1.3 1.4 1.3 0.8 0 1.4-0.5 1.5-1.2 5-36.7 19.8-142.6 19.8-142.6"/><path class="c" d="m278.8 244.1c0 0 11 105.8 14.8 142.5 0.1 0.7 0.7 1.3 1.4 1.3 0.8 0 1.4-0.5 1.5-1.2 5-36.7 19.8-142.6 19.8-142.6"/><path class="d" d="m493 96.3v-6.4c0-1.3-1.1-2.3-2.4-2.3h-13c-1.2 0-2.3 1-2.3 2.3v6.4c0 2.7-2.2 4.9-4.9 4.9-2.8 0-5 2.2-5 5v70.2c0 2.5 2 4.5 4.6 4.5h28.3c2.5 0 4.6-2 4.6-4.5v-70.2c0-2.8-2.2-5-5-5-2.7 0-4.9-2.2-4.9-4.9z"/><path class="e" d="m463.9 142.8v-17.1c0-0.9 0.7-1.7 1.7-1.7h37.1c0.9 0 1.7 0.8 1.7 1.7v17.1c0 0.9-0.8 1.7-1.7 1.7h-37.1c-1 0-1.7-0.8-1.7-1.7z"/><path class="e" d="m474 89.8v-8.6c0-0.5 0.4-0.8 0.9-0.8h18.5c0.5 0 0.9 0.3 0.9 0.8v8.6c0 0.4-0.4 0.8-0.9 0.8h-18.5c-0.5 0-0.9-0.4-0.9-0.8z"/><path class="c" d="m21.7 388h522.6"/><path class="f" d=""/><path class="e" d="m24.1 306.2c-12.4-5.5-15.5 6.5-10.7 16.5 4.8 9.9 29.4 43.3 30.7 56.6 0.5 5.1 1.7 4.5 2.6 0.9 4.9-17.9-5.6-66.4-22.6-74z"/><path class="g" d="m19.4 312.4c0.1 0.2 31.6 44.3 28.7 77.9"/><path class="h" d="m52.5 269c14.2-10.7 23 4.3 20.6 18.8-2.5 14.4-21.9 65.4-18.4 83.3 1.3 6.9-0.4 6.5-3.1 2-13.5-22.4-18.6-89.3 0.9-104.1z"/><path class="g" d="m53.1 375.3c-14.8-41.3 8.2-103 8.3-103.2"/><path class="f" d="m81.4 298c13.3-6.1 16.5 6.6 11.3 17.4-5.2 10.7-31.8 47-33.3 61.3-0.6 5.5-1.8 4.9-2.8 1.1-5-19.2 6.6-71.3 24.8-79.8z"/><path class="i" d="m88.5 302.2c-0.1 0.1-32.3 44.7-30 78.3"/><path class="j" d="m72.9 359.5l-5.7 28.5h-28.8l-5.6-28.5z"/><path class="f" d="m99.2 290.2c0 2.3-1.9 4.1-4.1 4.1-2.3 0-4.2-1.8-4.2-4.1 0-2.3 1.9-4.1 4.2-4.1 2.2 0 4.1 1.8 4.1 4.1z"/><path class="e" d="m31.2 298.5c0 2.2-1.8 4.1-4.1 4.1-2.3 0-4.1-1.9-4.1-4.1 0-2.3 1.8-4.2 4.1-4.2 2.3 0 4.1 1.9 4.1 4.2z"/><path class="h" d="m77.6 259.6c0 2.3-1.9 4.1-4.1 4.1-2.3 0-4.2-1.8-4.2-4.1 0-2.3 1.9-4.1 4.2-4.1 2.2 0 4.1 1.8 4.1 4.1z"/><path class="h" d="m66.3 253c0 1.4-1.1 2.5-2.4 2.5-1.4 0-2.5-1.1-2.5-2.5 0-1.4 1.1-2.5 2.5-2.5 1.3 0 2.4 1.1 2.4 2.5z"/><path class="e" d="m37.7 290.2c0 1.4-1.1 2.5-2.5 2.5-1.3 0-2.4-1.1-2.4-2.5 0-1.3 1.1-2.4 2.4-2.4 1.4 0 2.5 1.1 2.5 2.4z"/><path class="f" d="m91 280.7c0 1.3-1.1 2.4-2.5 2.4-1.4 0-2.5-1.1-2.5-2.4 0-1.4 1.1-2.5 2.5-2.5 1.4 0 2.5 1.1 2.5 2.5z"/><path class="j" d="m280.5 168.9l1.3 5.9 63 17.9c21 7.2 34.6 25.1 38.7 46.9l24.9 126.8h-70l-20.9-126-115.8-71.5z"/><path class="j" d="m187.6 168.9l48.7-1.1 5.5 7.1 49 15.4c23.8 7.4 38 31.9 32.5 56.3l-27.2 119.9-71.5-1.4 25.3-122c0 0-30.6-2.1-47.6-11-23.2-12.1-14.7-63.2-14.7-63.2z"/><path class="k" d="m211.5 167.2c0 0-2.3 23.2 1.4 25.3 3.3 1.9 47.1 16.4 58.2 20 16.2 5.3-34 153.3-34 153.3"/><path class="k" d="m406.7 358.9h-70.5"/><path class="k" d="m297.8 358.9l-71.7-1.3"/><path class="k" d="m265.8 182.6l25 7.7c23.8 7.4 38 31.9 32.5 56.3l-2.7 11.9"/><path class="k" d="m249.9 243.1l1.1-5.6"/><path class="k" d="m245.6 236.2c0.3 4.1 1.6 4.8 4.3 6.9"/><path class="e" d="m338.4 366.4h70l22.2 20.6h-93.3z"/><path class="l" d="m425.8 383.8h-87.8"/><path class="e" d="m224.6 365.1l72.2 1.4 16.3 20.5h-95.3z"/><path class="l" d="m306.8 383.8h-87.8"/><path class="k" d="m323.3 246.6l19.7 111.6"/><path class="j" d="m267.6 26.8q1.3 0 2.6 0c1.7 0.1 3.3 0.3 4.9 0.6 8.7 1.6 16.8 7.4 15.8 16.5-0.2 2.6-0.9 5.2-1.7 7.7-1.5 4.6-3.7 9-5 13.6-0.4 1.1-0.6 2.2-0.3 3.1 0.6 2 3.1 2.6 5.3 3.1 3.8 0.8 7.7 2 10 4.9 1.6 2.1 2.1 5 1.9 7.8-0.4 3.9-2 7.9-4.5 11.3-1.6 2-3.5 3.9-6 4.7-2.9 1-5.8 0.4-8.6-0.1-20.6-3.8-42.9-1.5-64.6 1.7-3.3-3.5-5.5-8-6.2-12.8-0.6-4.5 0.3-8.9 4-12.7 2.7-2.7 6.2-4.7 9.8-6.2 3.2-1.4 4.3-2.9 4.5-6 0.5-6.9 1.5-14.3 5.4-20.8 6.7-11 20.3-16.1 32.7-16.4z"/><path class="c" d="m347.2 138.4q1 1.9 2 3.8"/><path class="d" d="m290.1 87.5c4-1.1 8.3-0.9 12.2 0.5 3.8 1.4 7.3 4 9.6 7.4 11.7 16.8 27.9 29.8 39.6 46.6 19.4 2.2 39 4.3 58.5 6.6 11.4 1.2 24.7 4.3 35.3 8.3 2.9 6.8-8.9 16.9-8.9 16.9-3.8 0.7-7.5 1.7-11.3 2.4q0 0.2-0.1 0.3c2.4 2.4-15.7 6.4-18.2 4.2-15.2 0.4-30.2 0.2-45.4 0.6-13.2 0.2-25.8-3.6-36.9-10.6-9.2-5.8-17.7-13.2-23.3-22.5l-10.6-26.4z"/><path class="d" d="m439.5 157.3l5.9 18.6c0.5 1.1 0.5 2.3 0 3.4-0.4 1.1-1.3 1.9-2.3 2.4q-0.3 0-0.5 0.1c-1.6 0.7-3.4 0.1-4.4-1.3l-9.7-13.8z"/><path class="j" d="m449.8 180.2c0-7.4-6-13.5-13.5-13.5h-5.5c-7.4 0-13.5 6.1-13.5 13.5v0.1h32.5z"/><path class="d" d="m416.4 166.1c0 0 6.1 3 10.2 4.9 2.1 1.1 3.3 3.3 3.1 5.6q-0.1 0.4-0.1 0.8c-0.2 1.8-1.7 3.1-3.5 3.1-3 0-7.5 0-11 0-3.4 0-6.7-1.3-9.1-3.7-3.5-3.6-8.3-8.3-8.3-8.3z"/><path class="c" d="m416.4 166.1c0 0 6.1 3 10.2 4.9 2.1 1.1 3.3 3.3 3.1 5.6q-0.1 0.4-0.1 0.8c-0.2 1.8-1.7 3.1-3.5 3.1-3 0-7.5 0-11 0-3.4 0-6.7-1.3-9.1-3.7-3.5-3.6-8.3-8.3-8.3-8.3"/><path class="d" d="m445.3 156.9l10.5 16.5c0.8 0.9 1.1 2.1 0.9 3.2-0.1 1.2-0.7 2.2-1.6 2.9q-0.2 0.2-0.4 0.3c-1.4 1-3.3 1-4.6-0.1l-16.5-13.9z"/><path class="b" d="m268.6 118.8l18 20 36.8-38.8-17.3-16.5-41.9 12.5z"/><path class="b" d="m306.1 83.5c-7.4-8.8-23.3-11.5-35.1-12.8l-17.4-3.4c0 0-25 4-38.5 6.4-13.4 2.4-21.8 7.9-30.2 14.4l10.4 16.6-8.2 52.1 92.9 7.1 3-29.1c10-10.5 21.7-35.3 23.1-51.3z"/><path class="c" d="m280.5 78c-4.3 7.8-13.7 12.4-22.4 10.9-8.7-1.4-16.2-8.8-17.6-17.5"/><path class="e" d="m300.7 78.9c-3.7-2.3-8-4-12.6-5.2l-0.2 6.4c-0.5 17.3-15.7 30.5-32.9 28.7q-0.5-0.1-1-0.1c-12.8-1.5-23.1-11.3-25.5-24-0.8-4-1.8-8.4-3-12.8-3.7 0.7-7.4 1.3-10.4 1.8q-1.6 0.3-3.1 0.7c2.5 8.7 4.7 18.9 5.2 28.9 1.2 25-14.6 44.2-14.6 44.2l0.3 8.7c0 0-15.3 18.3-15.2 18.3 1.1 1.1 93.4-4.7 93.4-4.7l1.9-35c5.2-5.4 10.8-14.7 15.2-24.6 1.7-3.8 2.5-7.9 2.6-12.1v-8.7z"/><path class="m" d="m282.9 116.2h-51.4c0 0-1.8 26.4 25 26.4 29.7 0 26.4-26.4 26.4-26.4z"/><path class="d" d="m148.6 147.8c0.7-11.9 4.5-24.6 12.8-33.1 8.8-9.1 17.8-17.8 26.6-26.9 5.9-0.9 12 1.3 16.2 5.4 4.3 4.1 6.7 9.9 7.1 15.8 0.4 5.9-1.4 11.8-4 17.1-2.9 6.1-6.4 12.3-9.4 18.4 10.7-0.6 41.9-0.5 41.9-0.5l-2.7 36-67.8 1.6c-8.3 0.2-15.8-5-18.2-12.9-2.1-6.8-2.9-13.9-2.5-20.9z"/><path class="c" d="m198.4 144.3q-6.1 0.8-12.1 1.6"/><path class="b" d="m184.9 88.1l-15.9 13.6 37.5 37.1 9.9-31.8-8.7-23.8z"/><path class="c" d="m192 84.7c6.5 0.8 12.5 4.3 16.4 9.5 3.9 5.2 5.5 12.1 4.4 18.5"/><path class="j" d="m279.6 31c0.1 3.6-1.7 7.6-4.5 9.8-3.5 2.6-8.5 3-12.3 0.9-0.3 4.8-1.7 9.8-5.2 13-1.8 1.6-4.1 2.6-6.5 2.9-0.5-0.9-2.3-3.6-2.8-4.6-0.3-1.7 0.4-1.3 0.2-2.3-0.2-1.3-0.5-2.8-0.5-4.2 0-10.6 9.2-19.3 19.8-19.3 4.3 0 8.6 1.4 11.8 3.8z"/><path class="d" d="m243.5 69c2.3-0.6 5.8-1 8.1-1.5 0.9-4.4 1.2-7.2 2.1-11.7-2.8 0-5.4-1.8-6.2-4.4-0.9-2.6 0-5.6 2.1-7.3 2.2-1.7 5.2-1.9 7.4-0.4 0.1 0.7-0.1 1.4-0.1 2.1 1.3 0.2 2.5-0.7 3.4-1.8 0.8-1 1.6-2.1 2.8-2.7 2.3-1 4.9 0.7 7.4 0.5 2.1-0.3 3.9-2.1 4.1-4.2 3.4 0.5 6.7 3.4 7.3 6.7 0.8 3.8 0.7 7.7 0.1 11.5-0.7 4.2-4.4 7.9-8.6 8.8-0.6 2.7-0.8 3.4-1.5 6.1l7 1.1c-1.9 4.3-7.9 11.7-12.5 12.7-4.6 1.1-9.6 0-13.6-2.6-4-2.6-7-6.8-8.5-11.3"/><path class="c" d="m254.4 56.3q-0.7-0.1-1.5-0.2"/><path class="c" d="m273.6 65c-4.3 1.3-9.2-0.1-12.2-3.4"/><path class="c" d="m270.1 55.3q0.5 0.2 1.1 0.3c0.4 0.1 0.8 0.3 1.2 0.3q0.1 0 0.1 0c0.7-2.1 1.1-4.3-0.5-7.1"/><path class="c" d="m269.3 58.1c-0.9 0.5-2 0.4-2.7-0.1-0.7-0.5-1-1.5-0.8-2.4"/><path class="c" d="m275.5 46.3c0.7-0.7 1.8-0.9 2.8-0.4 1 0.4 1.7 1.4 1.7 2.4"/><path class="c" d="m268.4 46.9c-0.3-0.9-1.3-1.5-2.3-1.5-1.1 0-2.1 0.7-2.6 1.6"/><path class="n" d="m254.1 49.2l-3.2-1"/><path class="n" d="m254.8 46.3c-1.7-0.3-3.2 0.2-3.7 1.5-0.6 1.4-0.1 3 1.4 4.2q0 0 0 0"/><path class="j" d="m264.9 50.1c-0.2-0.5 0-1 0.5-1.2 0.5-0.2 1 0.1 1.2 0.5 0.2 0.5-0.1 1-0.5 1.2-0.5 0.2-1 0-1.2-0.5z"/><path class="j" d="m277.4 51.4c-0.2-0.5 0.1-1 0.5-1.2 0.5-0.2 1.1 0.1 1.2 0.5 0.2 0.5 0 1-0.5 1.2-0.5 0.2-1 0-1.2-0.5z"/><path class="e" d="m265.3 176.4h129.7c0.6 0 1.1 0.4 1.1 1.1v2.9c0 0.6-0.5 1.1-1.1 1.1h-129.7c-0.6 0-1.1-0.5-1.1-1.1v-2.9c0-0.7 0.5-1.1 1.1-1.1z"/><path class="e" d="m301.5 176.4h93.7c0.7 0 1.4-0.6 1.5-1.3l11.6-49.2c0.5-2.4-1.3-4.6-3.7-4.6h-89.2c-1.7 0-3.3 1.2-3.7 2.9l-11.7 50.2c-0.2 1 0.5 2 1.5 2z"/><path class="o" d="m349.9 152.2c-0.7 3.9 1.9 6.9 5.7 6.9 3.8 0 7.4-3 8.1-6.9 0.7-3.8-1.8-6.9-5.6-6.9-3.8 0-7.5 3.1-8.2 6.9z"/><path class="c" d="m143.6 187.6c0 0 21.5 150.5 28.2 197.5 0.1 1.1 1 1.9 2.1 1.9 1.1 0 2-0.8 2.2-1.8 8.3-46.9 35.5-197.6 35.5-197.6"/><path class="c" d="m424 187.6c0 0 21.5 150.5 28.1 197.5 0.2 1.1 1.1 1.9 2.1 1.9 1.1 0 2.1-0.8 2.2-1.8 8.4-46.9 35.6-197.6 35.6-197.6"/><path class="j" d="m509.7 191.5h-369.2c-1.6 0-2.9-1.3-2.9-2.9v-5.1c0-1.6 1.3-2.9 2.9-2.9h369.2c1.6 0 2.9 1.3 2.9 2.9v5.1c0 1.6-1.3 2.9-2.9 2.9z"/><path class="d" d="m229.8 144.1c0 0 23 0.4 27.3 0.5q0.9 0.1 1.9 0.2c6.3 1 11.8 3.5 16.2 7.9l-1.1 29.2-42.1-1.8z"/><path class="d" d="m257.8 148.9c0 0 6.7-3.2 11.1-5.3 2.3-1.1 3.6-3.5 3.4-6.1q-0.1-0.4-0.1-0.8c-0.2-1.9-1.9-3.4-3.8-3.4-3.2 0-8.1 0-11.9 0-3.7 0-7.2 1.5-9.9 4.1-3.8 3.8-8.9 8.9-8.9 8.9z"/><path class="d" d="m270.3 149.6c0 0 20.8 2.5 30.4 3.7 1.3 0.1 2.4 0.8 3.2 1.8 0.7 0.9 1.1 2.2 0.9 3.5q0 0.2-0.1 0.4c-0.2 1.9-1.7 3.3-3.5 3.5-8 0.7-28.1 2.4-28.1 2.4z"/><path class="d" d="m276.3 160.4c0 0 18.9 3.6 28 5.3 1.2 0.3 2.3 1 3 2 0.7 1.1 1 2.4 0.7 3.6q-0.1 0.2-0.1 0.5c-0.5 1.9-2.3 3.3-4.3 3.1-9.1-0.8-32.8-2.8-32.8-2.8z"/><path class="d" d="m267.7 162.7c0 0 22 10.3 30.6 14.3 1.9 0.9 2.8 3.2 2.1 5.2q0 0.1-0.1 0.1c-0.7 2-2.9 3.1-4.9 2.4-8.5-2.8-29-9.5-29-9.5z"/><path class="d" d="m274.6 172.1c0 0 10.4 7.2 15.6 10.9 1.7 1.2 2.1 3.4 1 5.1q-0.1 0.1-0.1 0.2c-1 1.5-2.9 1.9-4.4 1.1-5.1-2.7-15.6-8.4-15.6-8.4z"/></svg>